<svg xmlns="http://www.w3.org/2000/svg" viewBox="0 0 453.067 128.21"><title>Artboard 1test5</title><path d="M22.714,0c14.518,0,21.98,8.683,21.98,23.877v2.985H30.583V22.927c0-6.783-2.713-9.361-7.462-9.361s-7.462,2.578-7.462,9.361c0,6.919,2.985,12.074,12.754,20.621C40.9,54.538,44.83,62.406,44.83,73.259c0,15.195-7.6,23.877-22.251,23.877S.327,88.454.327,73.259V67.426h14.11v6.783c0,6.784,2.985,9.225,7.734,9.225s7.734-2.441,7.734-9.225c0-6.919-2.985-12.074-12.754-20.621C4.668,42.6.734,34.73.734,23.877.734,8.683,8.2,0,22.714,0Z" style="fill:#4d4d4d"/><path d="M67.621,1.085v73.26c0,6.783,2.985,9.225,7.734,9.225s7.734-2.442,7.734-9.225V1.085H97.2V73.4c0,15.194-7.6,23.877-22.252,23.877S52.7,88.589,52.7,73.4V1.085Z" style="fill:#4d4d4d"/><path d="M138.579,96.051c-.814-2.442-1.356-3.934-1.356-11.667V69.461c0-8.818-2.986-12.074-9.77-12.074H122.3V96.051H107.373V1.085H129.9c15.467,0,22.116,7.19,22.116,21.842v7.462c0,9.768-3.121,16.008-9.769,19.129v.271c7.462,3.121,9.9,10.175,9.9,20.079V84.52c0,4.612.136,8,1.628,11.531ZM122.3,14.652V43.82h5.835c5.563,0,8.955-2.442,8.955-10.039V24.419c0-6.783-2.307-9.767-7.6-9.767Z" style="fill:#4d4d4d"/><path d="M184.3,43.142H205.2V73.259c0,15.195-7.6,23.877-22.251,23.877s-22.252-8.682-22.252-23.877V23.877C160.692,8.683,168.29,0,182.944,0S205.2,8.683,205.2,23.877V33.1H191.084V22.927c0-6.783-2.984-9.361-7.733-9.361s-7.734,2.578-7.734,9.361V74.209c0,6.784,2.985,9.225,7.734,9.225s7.733-2.441,7.733-9.225v-17.5H184.3Z" style="fill:#4d4d4d"/><path d="M214.826,1.085h14.925V96.051H214.826Z" style="fill:#4d4d4d"/><path d="M272.081,68.511h.271L282.393,1.085h20.758V96.051h-14.11v-68.1h-.271l-10.041,68.1H264.618L253.764,28.9h-.272V96.051H240.467V1.085h20.759Z" style="fill:#4d4d4d"/><path d="M362.3,96.051H347.242l-2.577-17.229H326.348L323.77,96.051h-13.7l15.2-94.966h21.844ZM328.247,65.934h14.382l-7.055-48.026H335.3Z" style="fill:#4d4d4d"/><path d="M359.723,1.085h46.131V14.652h-15.6v81.4H375.325v-81.4h-15.6Z" style="fill:#4d4d4d"/><path d="M427.288,41.106h20.487V54.673H427.288V82.485h25.779V96.051h-40.7V1.085h40.7V14.652H427.288Z" style="fill:#4d4d4d"/><rect y="110.21" width="43" height="18" style="fill:#10899c"/></svg>